<svg width="28" height="24" viewBox="0 0 28 24" fill="none" xmlns="http://www.w3.org/2000/svg">
<path d="M9.50113 20.9356V19.7437C9.50776 19.6434 9.49404 19.5429 9.46089 19.4486C9.42774 19.3544 9.37592 19.2687 9.30889 19.1973C9.24186 19.1259 9.16115 19.0703 9.07215 19.0344C8.98315 18.9984 8.8879 18.9829 8.79276 18.9888C8.66825 18.9803 8.54385 19.0071 8.43251 19.0665C8.32118 19.1259 8.22698 19.2157 8.15976 19.3265C8.09849 19.219 8.01086 19.1309 7.90609 19.0714C7.80131 19.012 7.68327 18.9835 7.56441 18.9888C7.4608 18.9833 7.35762 19.0065 7.2651 19.056C7.17258 19.1054 7.09392 19.1795 7.0369 19.2709V19.0365H6.64502V20.9356H7.04066V19.8828C7.0321 19.8178 7.0373 19.7517 7.05587 19.6891C7.07445 19.6265 7.10594 19.569 7.14809 19.5207C7.19024 19.4725 7.24199 19.4347 7.29964 19.4101C7.35729 19.3854 7.4194 19.3746 7.48151 19.3782C7.7415 19.3782 7.87339 19.557 7.87339 19.8788V20.9356H8.26904V19.8828C8.26112 19.8179 8.26677 19.752 8.28558 19.6897C8.30439 19.6274 8.33592 19.5702 8.37793 19.5222C8.41994 19.4741 8.47143 19.4363 8.52878 19.4114C8.58613 19.3865 8.64795 19.3752 8.70989 19.3782C8.97738 19.3782 9.10551 19.557 9.10551 19.8788V20.9356H9.50113ZM11.7092 19.0365H11.3173V19.2669C11.2504 19.1761 11.1638 19.1034 11.0649 19.055C10.9659 19.0066 10.8573 18.9839 10.7483 18.9888C10.5055 19.0014 10.2766 19.1119 10.1089 19.2976C9.94131 19.4832 9.84781 19.7297 9.84781 19.9861C9.84781 20.2424 9.94131 20.4889 10.1089 20.6746C10.2766 20.8602 10.5055 20.9708 10.7483 20.9833C10.8573 20.9882 10.9659 20.9655 11.0649 20.9172C11.1638 20.8688 11.2504 20.7961 11.3173 20.7052V20.9356H11.7092V19.0365ZM10.251 19.986C10.2571 19.874 10.2941 19.7663 10.3576 19.6761C10.421 19.586 10.5081 19.5174 10.6081 19.4789C10.7081 19.4403 10.8166 19.4334 10.9202 19.4591C11.0238 19.4848 11.118 19.5419 11.1913 19.6234C11.2645 19.7048 11.3135 19.8071 11.3323 19.9176C11.351 20.0281 11.3387 20.142 11.2968 20.2452C11.2549 20.3484 11.1853 20.4364 11.0965 20.4983C11.0078 20.5603 10.9038 20.5935 10.7973 20.5939C10.7227 20.595 10.6487 20.5797 10.5799 20.5491C10.5112 20.5185 10.4492 20.4733 10.3979 20.4162C10.3466 20.359 10.307 20.2913 10.2817 20.2173C10.2564 20.1433 10.246 20.0645 10.251 19.986ZM20.0942 18.9866C20.2265 18.9853 20.3578 19.0112 20.4807 19.063C20.5953 19.1112 20.6997 19.1826 20.7882 19.2732C20.8752 19.3632 20.9443 19.4708 20.9913 19.5895C21.0892 19.8438 21.0892 20.1283 20.9913 20.3826C20.9443 20.5014 20.8753 20.6089 20.7882 20.699C20.6997 20.7896 20.5953 20.861 20.4807 20.9092C20.2321 21.011 19.9563 21.011 19.7077 20.9092C19.5934 20.8611 19.4892 20.7897 19.4011 20.699C19.3146 20.6087 19.2459 20.5012 19.199 20.3826C19.1012 20.1283 19.1012 19.8438 19.199 19.5895C19.2459 19.471 19.3146 19.3635 19.4011 19.2732C19.4892 19.1825 19.5934 19.111 19.7077 19.063C19.8306 19.0112 19.9619 18.9853 20.0942 18.9866ZM20.0942 19.3773C20.0176 19.3766 19.9415 19.3917 19.8704 19.4219C19.8034 19.4503 19.7426 19.4928 19.6918 19.5468C19.6406 19.602 19.6003 19.6674 19.5733 19.7392C19.5156 19.8982 19.5156 20.074 19.5733 20.233C19.6003 20.3048 19.6406 20.3701 19.6918 20.4253C19.7426 20.4794 19.8034 20.5219 19.8704 20.5503C20.0143 20.6098 20.1741 20.6098 20.318 20.5503C20.3852 20.5218 20.4463 20.4793 20.4976 20.4253C20.5493 20.3703 20.5899 20.3049 20.6171 20.233C20.6748 20.074 20.6748 19.8982 20.6171 19.7392C20.5899 19.6673 20.5493 19.6018 20.4976 19.5468C20.4463 19.4929 20.3852 19.4504 20.318 19.4219C20.2469 19.3917 20.1709 19.3766 20.0942 19.3773ZM13.8415 19.986C13.8377 19.3941 13.4911 18.9888 12.9862 18.9888C12.7418 19.0024 12.5118 19.1152 12.3446 19.3036C12.1774 19.492 12.0859 19.7414 12.0893 19.9994C12.0927 20.2575 12.1908 20.5041 12.3629 20.6875C12.5351 20.871 12.7679 20.977 13.0126 20.9833C13.2814 20.9933 13.5443 20.8985 13.7511 20.7171L13.5589 20.4112C13.4101 20.5369 13.2258 20.6068 13.0352 20.6098C12.9057 20.6213 12.777 20.5792 12.6765 20.4925C12.5759 20.4057 12.5113 20.2811 12.4963 20.145H13.834C13.8377 20.0933 13.8415 20.0417 13.8415 19.986ZM12.5001 19.8192C12.507 19.6917 12.5609 19.5721 12.6503 19.486C12.7398 19.3999 12.8576 19.354 12.9786 19.3583C13.097 19.3559 13.2114 19.4031 13.2969 19.4894C13.3824 19.5758 13.4319 19.6944 13.4346 19.8192H12.5001ZM15.4918 19.5212C15.3208 19.4175 15.1276 19.3615 14.9304 19.3583C14.7156 19.3583 14.5875 19.4418 14.5875 19.5808C14.5875 19.708 14.7231 19.7437 14.8927 19.7675L15.0773 19.7953C15.4692 19.8549 15.7065 20.0298 15.7065 20.3635C15.7065 20.725 15.4051 20.9833 14.8851 20.9833C14.6068 20.9914 14.3334 20.9051 14.1052 20.7369L14.2898 20.4152C14.4627 20.5504 14.6737 20.6203 14.8889 20.6138C15.1564 20.6138 15.2996 20.5304 15.2996 20.3834C15.2996 20.2761 15.1979 20.2165 14.9831 20.1847L14.7985 20.1569C14.3953 20.0973 14.1768 19.9066 14.1768 19.5967C14.1768 19.2193 14.4707 18.9888 14.9266 18.9888C15.1845 18.9795 15.4395 19.0484 15.6614 19.1875L15.4918 19.5212ZM17.3747 19.414H16.7342V20.2722C16.7342 20.4628 16.7982 20.59 16.9942 20.59C17.1165 20.5857 17.2358 20.5488 17.3408 20.4827L17.4539 20.8363C17.3069 20.9329 17.1372 20.9839 16.964 20.9833C16.5006 20.9833 16.3386 20.7211 16.3386 20.2801V19.414H15.9731V19.0365H16.3386L16.3385 18.4604H16.7341L16.7342 19.0365H17.3747V19.414ZM18.7309 18.9888C18.826 18.9892 18.9203 19.0067 19.0098 19.0405L18.8892 19.4299C18.8113 19.3972 18.7281 19.381 18.6443 19.3822C18.388 19.3822 18.2599 19.557 18.2599 19.8708V20.9356H17.868V19.0365H18.2562V19.2669C18.3042 19.1798 18.3737 19.108 18.4573 19.0591C18.5408 19.0101 18.6354 18.9859 18.7309 18.9888ZM21.4438 20.6592C21.4682 20.659 21.4923 20.664 21.5148 20.674C21.5364 20.6835 21.5561 20.6973 21.5728 20.7145C21.5894 20.7318 21.6027 20.7522 21.6119 20.7748C21.6213 20.7979 21.6262 20.8229 21.6262 20.8481C21.6262 20.8733 21.6213 20.8982 21.6119 20.9214C21.6026 20.9438 21.5893 20.9642 21.5728 20.9814C21.556 20.9986 21.5364 21.0125 21.5148 21.0221C21.4924 21.0322 21.4682 21.0374 21.4438 21.0372C21.4079 21.0376 21.3727 21.0268 21.3426 21.0062C21.3125 20.9856 21.2888 20.9561 21.2745 20.9214C21.2651 20.8982 21.2602 20.8733 21.2602 20.8481C21.2602 20.8229 21.2651 20.7979 21.2745 20.7748C21.2837 20.7523 21.2969 20.7318 21.3134 20.7145C21.3301 20.6971 21.3499 20.6834 21.3716 20.674C21.3945 20.664 21.419 20.659 21.4438 20.6592ZM21.4438 20.9955C21.4624 20.9957 21.4808 20.9917 21.4979 20.9839C21.5143 20.9764 21.5292 20.9657 21.5418 20.9524C21.558 20.9354 21.57 20.9145 21.5767 20.8914C21.5834 20.8684 21.5846 20.8439 21.5803 20.8203C21.576 20.7966 21.5662 20.7744 21.5518 20.7556C21.5375 20.7369 21.5189 20.7222 21.4979 20.7127C21.4808 20.705 21.4624 20.7012 21.4438 20.7013C21.4249 20.7012 21.4062 20.705 21.3887 20.7127C21.372 20.7199 21.3569 20.7305 21.3441 20.7439C21.318 20.7717 21.3034 20.8091 21.3034 20.8482C21.3034 20.8872 21.318 20.9247 21.3441 20.9524C21.3572 20.9662 21.3728 20.9771 21.3899 20.9844C21.407 20.9918 21.4253 20.9956 21.4438 20.9955ZM21.4544 20.7597C21.472 20.7585 21.4895 20.7638 21.5038 20.7748C21.5095 20.7797 21.5141 20.786 21.5171 20.7931C21.5201 20.8002 21.5215 20.808 21.5212 20.8158C21.5214 20.8224 21.5202 20.8291 21.5179 20.8352C21.5155 20.8414 21.5119 20.847 21.5073 20.8516C21.4964 20.8619 21.4826 20.868 21.468 20.869L21.5225 20.9353H21.4799L21.4294 20.8695H21.4131V20.9353H21.3775V20.7597H21.4544ZM21.4131 20.7926V20.8394H21.454C21.4618 20.8398 21.4696 20.8378 21.4764 20.8336C21.4791 20.8316 21.4813 20.829 21.4828 20.8258C21.4843 20.8227 21.4849 20.8192 21.4847 20.8158C21.4849 20.8123 21.4842 20.8089 21.4827 20.8059C21.4813 20.8028 21.4791 20.8002 21.4764 20.7983C21.4696 20.7942 21.4618 20.7922 21.454 20.7926H21.4131Z" fill="white"/>
<path d="M16.8172 4.54248H10.874V15.8036H16.8172V4.54248Z" fill="#7375CF"/>
<path d="M11.2517 10.173C11.2508 9.08845 11.4839 8.01791 11.9333 7.04241C12.3828 6.0669 13.0368 5.212 13.8459 4.54241C12.844 3.71198 11.6406 3.19554 10.3734 3.05213C9.10625 2.90872 7.82636 3.14413 6.68007 3.73144C5.53377 4.31876 4.56732 5.23428 3.89117 6.37337C3.21501 7.51247 2.85645 8.82917 2.85645 10.173C2.85645 11.5168 3.21501 12.8335 3.89117 13.9726C4.56732 15.1117 5.53377 16.0272 6.68007 16.6145C7.82636 17.2018 9.10625 17.4372 10.3734 17.2938C11.6406 17.1504 12.844 16.634 13.8459 15.8035C13.0368 15.134 12.3828 14.2791 11.9333 13.3036C11.4839 12.328 11.2508 11.2575 11.2517 10.173Z" fill="#EB001B"/>
<path d="M24.1867 14.6105V14.3799H24.2748V14.333H24.0503V14.3799H24.1385V14.6105H24.1867ZM24.6226 14.6105V14.3325H24.5538L24.4746 14.5237L24.3954 14.3325H24.3266V14.6105H24.3752V14.4008L24.4494 14.5816H24.4998L24.574 14.4003V14.6105H24.6226Z" fill="#00A2E5"/>
<path d="M24.8349 10.173C24.8349 11.5168 24.4764 12.8335 23.8003 13.9726C23.1241 15.1117 22.1577 16.0272 21.0114 16.6145C19.8652 17.2018 18.5853 17.4372 17.3181 17.2938C16.051 17.1504 14.8479 16.634 13.8459 15.8035C14.6543 15.1333 15.3076 14.2782 15.757 13.3029C16.2064 12.3275 16.4399 11.2573 16.4399 10.173C16.4399 9.08862 16.2064 8.01842 15.757 7.04307C15.3076 6.06772 14.6543 5.21267 13.8459 4.54241C14.8479 3.71198 16.051 3.19554 17.3181 3.05213C18.5853 2.90872 19.8652 3.14414 21.0114 3.73146C22.1577 4.31878 23.1241 5.23431 23.8003 6.3734C24.4764 7.51249 24.8349 8.82919 24.8349 10.173Z" fill="#00A2E5"/>
</svg>
