<svg width="30" height="24" viewBox="0 0 30 24" fill="none" xmlns="http://www.w3.org/2000/svg">
<path d="M7.5725 20.98V19.7842C7.5795 19.6837 7.56503 19.5828 7.53005 19.4882C7.49507 19.3937 7.44039 19.3078 7.36965 19.2361C7.29891 19.1644 7.21374 19.1087 7.11983 19.0727C7.02591 19.0366 6.9254 19.021 6.82501 19.027C6.69362 19.0184 6.56233 19.0453 6.44484 19.1049C6.32735 19.1645 6.22796 19.2545 6.15702 19.3657C6.09237 19.2579 5.9999 19.1695 5.88933 19.1098C5.77877 19.0502 5.65422 19.0216 5.52879 19.027C5.41945 19.0215 5.31058 19.0447 5.21294 19.0943C5.11531 19.1439 5.0323 19.2183 4.97213 19.31V19.0748H4.55859V20.98H4.97609V19.9237C4.96706 19.8586 4.97255 19.7922 4.99215 19.7294C5.01175 19.6666 5.04498 19.6089 5.08946 19.5605C5.13394 19.5121 5.18855 19.4742 5.24939 19.4495C5.31022 19.4248 5.37576 19.4139 5.4413 19.4176C5.71565 19.4176 5.85484 19.5969 5.85484 19.9197V20.98H6.27233V19.9237C6.26398 19.8587 6.26994 19.7926 6.28979 19.7301C6.30965 19.6676 6.34291 19.6102 6.38724 19.562C6.43158 19.5137 6.48591 19.4758 6.54643 19.4509C6.60695 19.4259 6.67218 19.4145 6.73754 19.4176C7.01983 19.4176 7.15501 19.5969 7.15501 19.9197V20.98H7.5725ZM13.7514 19.0748H13.0755V18.4969H12.658V19.0748H12.2723V19.4534H12.658V20.3223C12.658 20.7647 12.829 21.0278 13.318 21.0278C13.5007 21.0283 13.6799 20.9772 13.8349 20.8803L13.7157 20.5256C13.6048 20.5919 13.4789 20.6289 13.3498 20.6332C13.1431 20.6332 13.0755 20.5056 13.0755 20.3144V19.4534H13.7514V19.0748ZM17.2783 19.027C17.1774 19.024 17.0777 19.0483 16.9895 19.0974C16.9013 19.1465 16.828 19.2186 16.7773 19.306V19.0748H16.3677V20.98H16.7812V19.9118C16.7812 19.5969 16.9164 19.4215 17.1868 19.4215C17.2753 19.4203 17.3631 19.4366 17.4453 19.4694L17.5725 19.0788C17.4781 19.0449 17.3786 19.0274 17.2783 19.027ZM11.9463 19.2262C11.7122 19.0867 11.4431 19.0176 11.1709 19.027C10.6898 19.027 10.3797 19.2581 10.3797 19.6368C10.3797 19.9477 10.6103 20.139 11.0357 20.1988L11.2306 20.2266C11.4572 20.2585 11.5646 20.3183 11.5646 20.4259C11.5646 20.5734 11.4134 20.6571 11.1312 20.6571C10.9041 20.6637 10.6814 20.5935 10.4989 20.4578L10.3041 20.7807C10.545 20.9493 10.8335 21.0359 11.1272 21.0278C11.6759 21.0278 11.994 20.7687 11.994 20.406C11.994 20.0712 11.7435 19.8958 11.33 19.836L11.1352 19.8081C10.9562 19.7842 10.8131 19.7484 10.8131 19.6209C10.8131 19.4813 10.9482 19.3976 11.1749 19.3976C11.383 19.4008 11.5869 19.457 11.7673 19.561L11.9463 19.2262ZM23.0238 19.027C22.923 19.024 22.8232 19.0483 22.735 19.0974C22.6469 19.1465 22.5735 19.2186 22.5228 19.306V19.0748H22.1133V20.98H22.5267V19.9118C22.5267 19.5969 22.662 19.4215 22.9323 19.4215C23.0208 19.4203 23.1086 19.4366 23.1908 19.4694L23.318 19.0788C23.2236 19.0449 23.1241 19.0274 23.0238 19.027ZM17.6957 20.0273C17.6902 20.1616 17.7128 20.2954 17.7621 20.4204C17.8113 20.5453 17.8861 20.6585 17.9816 20.7528C18.0771 20.847 18.1912 20.9202 18.3166 20.9675C18.442 21.0149 18.5759 21.0354 18.7097 21.0278C18.958 21.0403 19.2019 20.9592 19.3936 20.8006L19.1948 20.4658C19.0518 20.575 18.8775 20.6351 18.6977 20.6372C18.5428 20.6277 18.3973 20.5594 18.2909 20.4461C18.1845 20.3327 18.1252 20.183 18.1252 20.0274C18.1252 19.8717 18.1845 19.722 18.2909 19.6087C18.3973 19.4953 18.5428 19.427 18.6977 19.4176C18.8775 19.4196 19.0518 19.4797 19.1948 19.589L19.3936 19.2541C19.2019 19.0955 18.9579 19.0145 18.7097 19.027C18.5759 19.0193 18.442 19.0399 18.3166 19.0872C18.1912 19.1346 18.0771 19.2077 17.9816 19.302C17.8861 19.3962 17.8113 19.5094 17.7621 19.6343C17.7129 19.7593 17.6903 19.8931 17.6957 20.0273ZM21.5685 19.0748H21.155V19.306C21.0844 19.2148 20.9931 19.1419 20.8886 19.0933C20.7842 19.0448 20.6696 19.022 20.5546 19.027C20.2984 19.0396 20.0568 19.1505 19.8799 19.3367C19.703 19.5229 19.6043 19.7702 19.6043 20.0274C19.6043 20.2845 19.703 20.5318 19.8799 20.7181C20.0568 20.9043 20.2984 21.0152 20.5546 21.0278C20.6696 21.0327 20.7842 21.01 20.8886 20.9614C20.9931 20.9129 21.0844 20.8399 21.155 20.7488V20.98H21.5685V19.0748ZM20.0297 20.0273C20.0361 19.9149 20.0753 19.8068 20.1422 19.7164C20.2092 19.626 20.3011 19.5572 20.4066 19.5185C20.5121 19.4798 20.6266 19.4729 20.7359 19.4987C20.8453 19.5245 20.9447 19.5817 21.022 19.6635C21.0993 19.7452 21.151 19.8478 21.1708 19.9587C21.1906 20.0695 21.1776 20.1837 21.1334 20.2873C21.0892 20.3908 21.0157 20.4791 20.9221 20.5413C20.8284 20.6034 20.7186 20.6368 20.6063 20.6372C20.5276 20.6382 20.4495 20.6229 20.3769 20.5923C20.3044 20.5616 20.2389 20.5161 20.1848 20.4588C20.1306 20.4015 20.0889 20.3336 20.0622 20.2594C20.0355 20.1851 20.0244 20.1061 20.0297 20.0273ZM15.0397 19.027C14.7818 19.0406 14.5392 19.1538 14.3628 19.3428C14.1864 19.5318 14.0899 19.782 14.0935 20.0408C14.0971 20.2996 14.2005 20.547 14.3821 20.731C14.5637 20.915 14.8094 21.0214 15.0675 21.0278C15.3512 21.0378 15.6287 20.9427 15.8469 20.7607L15.6441 20.4538C15.4871 20.58 15.2926 20.6501 15.0914 20.6531C14.9548 20.6646 14.819 20.6224 14.7129 20.5354C14.6068 20.4483 14.5386 20.3233 14.5228 20.1868H15.9343C15.9383 20.135 15.9423 20.0832 15.9423 20.0273C15.9383 19.4335 15.5725 19.027 15.0397 19.027ZM15.0317 19.3976C15.1566 19.3952 15.2774 19.4425 15.3676 19.5292C15.4578 19.6158 15.51 19.7348 15.5129 19.86H14.5268C14.534 19.7321 14.5909 19.6121 14.6853 19.5257C14.7797 19.4393 14.904 19.3933 15.0317 19.3976ZM25.4055 18.3096H24.992V19.306C24.9214 19.2148 24.83 19.1419 24.7256 19.0933C24.6211 19.0448 24.5066 19.022 24.3916 19.027C24.1353 19.0396 23.8937 19.1505 23.7168 19.3367C23.5399 19.5229 23.4413 19.7702 23.4413 20.0274C23.4413 20.2845 23.5399 20.5319 23.7168 20.7181C23.8937 20.9043 24.1353 21.0152 24.3916 21.0278C24.5066 21.0327 24.6211 21.01 24.7256 20.9614C24.83 20.9129 24.9214 20.8399 24.992 20.7488V20.98H25.4055V18.3096ZM26.0948 20.7039C26.1205 20.7037 26.1459 20.7087 26.1696 20.7187C26.1924 20.7282 26.2131 20.742 26.2307 20.7593C26.2482 20.7766 26.2622 20.7971 26.2719 20.8197C26.2818 20.8429 26.287 20.8679 26.287 20.8931C26.287 20.9184 26.2818 20.9434 26.2719 20.9666C26.2621 20.9891 26.2482 21.0095 26.2307 21.0267C26.2131 21.044 26.1923 21.0578 26.1696 21.0675C26.146 21.0776 26.1205 21.0828 26.0948 21.0826C26.057 21.083 26.0199 21.0722 25.9881 21.0515C25.9564 21.0309 25.9314 21.0013 25.9163 20.9666C25.9064 20.9434 25.9013 20.9184 25.9013 20.8931C25.9013 20.8679 25.9064 20.8429 25.9163 20.8197C25.926 20.7971 25.9399 20.7766 25.9573 20.7593C25.9749 20.7419 25.9958 20.7281 26.0187 20.7187C26.0428 20.7087 26.0687 20.7037 26.0948 20.7039ZM26.0948 21.0408C26.1144 21.041 26.1338 21.037 26.1518 21.0292C26.1691 21.0217 26.1847 21.011 26.1981 20.9976C26.2255 20.9699 26.2409 20.9323 26.2409 20.8932C26.2409 20.8541 26.2255 20.8166 26.1981 20.7888C26.1848 20.7755 26.1691 20.7648 26.1518 20.7575C26.1338 20.7498 26.1144 20.7459 26.0948 20.7461C26.0749 20.7459 26.0551 20.7498 26.0367 20.7575C26.0192 20.7647 26.0032 20.7754 25.9897 20.7888C25.9623 20.8166 25.9468 20.8541 25.9468 20.8932C25.9468 20.9323 25.9623 20.9699 25.9897 20.9976C26.0032 21.0111 26.0192 21.0218 26.0367 21.0292C26.0551 21.037 26.0748 21.0409 26.0948 21.0408ZM26.1059 20.8046C26.1245 20.8033 26.143 20.8087 26.158 20.8197C26.164 20.8246 26.1688 20.8309 26.172 20.838C26.1752 20.8452 26.1766 20.8529 26.1763 20.8607C26.1765 20.8674 26.1753 20.8741 26.1728 20.8803C26.1703 20.8864 26.1665 20.892 26.1617 20.8967C26.1502 20.9069 26.1356 20.913 26.1203 20.9141L26.1777 20.9805H26.1328L26.0796 20.9146H26.0624V20.9805H26.0249V20.8046H26.1059ZM26.0624 20.8375V20.8844H26.1055C26.1138 20.8848 26.122 20.8828 26.1291 20.8786C26.132 20.8766 26.1343 20.874 26.1359 20.8708C26.1374 20.8677 26.1381 20.8642 26.1379 20.8607C26.1381 20.8573 26.1374 20.8539 26.1358 20.8508C26.1343 20.8478 26.132 20.8452 26.1291 20.8433C26.122 20.8391 26.1137 20.8371 26.1055 20.8375H26.0624ZM23.8667 20.0273C23.8732 19.9149 23.9123 19.8068 23.9792 19.7164C24.0462 19.626 24.1381 19.5573 24.2436 19.5186C24.3491 19.4799 24.4636 19.473 24.5729 19.4988C24.6823 19.5245 24.7817 19.5818 24.859 19.6635C24.9362 19.7453 24.988 19.8479 25.0077 19.9587C25.0275 20.0696 25.0145 20.1838 24.9703 20.2873C24.9261 20.3908 24.8527 20.4791 24.759 20.5413C24.6653 20.6034 24.5556 20.6368 24.4432 20.6372C24.3645 20.6382 24.2864 20.6229 24.2139 20.5922C24.1413 20.5615 24.0759 20.5161 24.0217 20.4588C23.9676 20.4015 23.9258 20.3336 23.8992 20.2594C23.8725 20.1851 23.8614 20.1061 23.8667 20.0273ZM9.90254 19.0748H9.489V19.306C9.41842 19.2148 9.32708 19.1419 9.22262 19.0933C9.11817 19.0448 9.00363 19.022 8.8886 19.027C8.63237 19.0396 8.39079 19.1505 8.21389 19.3367C8.03699 19.5229 7.93832 19.7702 7.93832 20.0274C7.93832 20.2845 8.03699 20.5318 8.21389 20.7181C8.39079 20.9043 8.63237 21.0152 8.8886 21.0278C9.00363 21.0327 9.11817 21.01 9.22262 20.9614C9.32708 20.9129 9.41842 20.8399 9.489 20.7488V20.98H9.90254V19.0748ZM8.36378 20.0273C8.3702 19.9149 8.40931 19.8068 8.47627 19.7164C8.54324 19.626 8.63514 19.5572 8.74063 19.5186C8.84613 19.4799 8.96061 19.473 9.06996 19.4988C9.17931 19.5245 9.27876 19.5818 9.35602 19.6635C9.43329 19.7453 9.485 19.8479 9.50479 19.9587C9.52457 20.0696 9.51156 20.1838 9.46736 20.2873C9.42316 20.3908 9.3497 20.4791 9.25605 20.5413C9.16239 20.6034 9.05263 20.6368 8.9403 20.6372C8.86157 20.6382 8.78346 20.6229 8.71092 20.5922C8.63837 20.5615 8.57296 20.5161 8.51879 20.4588C8.46463 20.4015 8.42289 20.3336 8.39621 20.2594C8.36954 20.1851 8.35849 20.1061 8.36378 20.0273Z" fill="#231F20"/>
<path d="M18.0709 4.55461H11.8077V15.8369H18.0709V4.55461Z" fill="#FF5F00"/>
<path d="M12.204 10.1952C12.203 9.10867 12.4486 8.03612 12.9223 7.05878C13.396 6.08144 14.0852 5.22492 14.9379 4.55408C13.882 3.72208 12.6138 3.20468 11.2784 3.061C9.94292 2.91732 8.59409 3.15317 7.38605 3.74159C6.17801 4.33001 5.15948 5.24725 4.44691 6.38849C3.73433 7.52972 3.35645 8.8489 3.35645 10.1952C3.35645 11.5416 3.73433 12.8608 4.44691 14.002C5.15948 15.1432 6.17801 16.0605 7.38605 16.6489C8.59409 17.2373 9.94292 17.4732 11.2784 17.3295C12.6138 17.1858 13.882 16.6684 14.9379 15.8364C14.0852 15.1655 13.396 14.309 12.9223 13.3317C12.4486 12.3544 12.203 11.2818 12.204 10.1952Z" fill="#EB001B"/>
<path d="M26.5206 10.1953C26.5206 11.5416 26.1428 12.8608 25.4303 14.002C24.7177 15.1433 23.6992 16.0605 22.4912 16.6489C21.2832 17.2374 19.9344 17.4732 18.599 17.3295C17.2635 17.1859 15.9954 16.6684 14.9395 15.8364C15.7914 15.1649 16.4802 14.3083 16.9537 13.3311C17.4273 12.3539 17.6734 11.2817 17.6734 10.1953C17.6734 9.1089 17.4273 8.03669 16.9537 7.0595C16.4802 6.08232 15.7914 5.22566 14.9395 4.55414C15.9954 3.72214 17.2635 3.20474 18.599 3.06106C19.9344 2.91738 21.2832 3.15324 22.4912 3.74166C23.6992 4.33009 24.7177 5.24734 25.4303 6.38857C26.1428 7.52981 26.5206 8.84898 26.5206 10.1953Z" fill="#F79E1B"/>
<path d="M25.8341 14.6428V14.4118H25.9271V14.3647H25.6904V14.4118H25.7834V14.6428H25.8341ZM26.2936 14.6428V14.3643H26.221L26.1376 14.5558L26.0541 14.3643H25.9816V14.6428H26.0328V14.4327L26.111 14.6138H26.1641L26.2424 14.4322V14.6428H26.2936Z" fill="#F79E1B"/>
</svg>
