<svg width="41" height="14" viewBox="0 0 41 14" fill="none" xmlns="http://www.w3.org/2000/svg">
<path d="M17.9882 13.0094H14.7803L16.7867 0.231409H19.9944L17.9882 13.0094Z" fill="#00579F"/>
<path d="M29.6169 0.544008C28.9842 0.285464 27.9806 0 26.7397 0C23.5718 0 21.341 1.73989 21.3273 4.2274C21.301 6.06268 22.9245 7.08204 24.1388 7.69398C25.3798 8.31929 25.8017 8.72743 25.8017 9.28481C25.7891 10.1408 24.7989 10.5354 23.8753 10.5354C22.5945 10.5354 21.9083 10.332 20.8654 9.85574L20.443 9.65158L19.9941 12.52C20.7465 12.873 22.1327 13.1863 23.5718 13.2C26.9377 13.2 29.1291 11.487 29.155 8.8362C29.1678 7.3816 28.3106 6.26702 26.4624 5.35625C25.3404 4.77159 24.6533 4.37736 24.6533 3.77915C24.6664 3.23532 25.2344 2.6783 26.5009 2.6783C27.5438 2.65102 28.31 2.9092 28.8905 3.16757L29.1806 3.30325L29.6169 0.544008Z" fill="#00579F"/>
<path d="M33.8806 8.48259C34.1448 7.74851 35.1613 4.90742 35.1613 4.90742C35.148 4.9347 35.425 4.15979 35.5834 3.68408L35.8076 4.7851C35.8076 4.7851 36.415 7.84373 36.547 8.48259C36.0456 8.48259 34.5142 8.48259 33.8806 8.48259ZM37.8403 0.231409H35.359C34.5938 0.231409 34.0125 0.46231 33.6824 1.2916L28.9175 13.0092H32.2834C32.2834 13.0092 32.8376 11.4321 32.9567 11.0924C33.3259 11.0924 36.6003 11.0924 37.0753 11.0924C37.1674 11.541 37.4581 13.0092 37.4581 13.0092H40.4283L37.8403 0.231409Z" fill="#00579F"/>
<path d="M12.1006 0.231409L8.95906 8.94475L8.61577 7.17758C8.03496 5.1385 6.21341 2.92308 4.18066 1.82152L7.05823 12.9958H10.4505L15.4927 0.231409H12.1006Z" fill="#00579F"/>
<path d="M6.04209 0.231409H0.880926L0.828125 0.489592C4.85415 1.54996 7.52028 4.10541 8.61577 7.17758L7.49403 1.30551C7.30931 0.489411 6.74166 0.25833 6.04209 0.231409Z" fill="#FAA61A"/>
</svg>
